<?xml version="1.0" encoding="iso-8859-1"?>
<!-- Uploaded to: SVG Repo, www.svgrepo.com, Generator: SVG Repo Mixer Tools -->
<!DOCTYPE svg PUBLIC "-//W3C//DTD SVG 1.1//EN" "http://www.w3.org/Graphics/SVG/1.1/DTD/svg11.dtd">
<svg fill="#000000" height="800px" width="800px" version="1.1" id="Capa_1" xmlns="http://www.w3.org/2000/svg" xmlns:xlink="http://www.w3.org/1999/xlink" 
	 viewBox="0 0 478.929 478.929" xml:space="preserve">
<g>
	<path d="M436.936,233.958l-192-192c-55.951-55.943-146.99-55.943-202.942,0c-55.947,55.952-55.947,146.991,0,202.942l192,192
		c27.106,27.103,63.143,42.028,101.471,42.028s74.364-14.926,101.472-42.029C492.883,380.948,492.883,289.909,436.936,233.958z
		 M426.33,426.293c-24.273,24.27-56.543,37.636-90.865,37.636s-66.592-13.366-90.865-37.635l-90.697-90.697l117.74-117.74
		c2.929-2.929,2.929-7.678,0-10.606c-2.929-2.929-7.678-2.929-10.606,0l-117.74,117.74L52.6,234.294
		c-50.1-50.103-50.1-131.626-0.001-181.729c25.055-25.051,57.955-37.572,90.865-37.572c32.903,0,65.816,12.527,90.865,37.571
		l90.697,90.697l-13.74,13.74c-2.929,2.929-2.929,7.678,0,10.606c1.464,1.464,3.384,2.197,5.303,2.197s3.839-0.732,5.303-2.197
		l13.74-13.74l90.696,90.697C476.428,294.667,476.428,376.191,426.33,426.293z"/>
	<path d="M290.161,178.126l-8,8c-2.929,2.929-2.929,7.678,0,10.606c1.464,1.464,3.384,2.197,5.303,2.197s3.839-0.732,5.303-2.197
		l8-8c2.929-2.929,2.929-7.678,0-10.606C297.839,175.197,293.09,175.197,290.161,178.126z"/>
	<path d="M143.464,31.929c-8.693,0-17.346,0.998-25.718,2.966c-4.032,0.948-6.533,4.985-5.584,9.017
		c0.812,3.455,3.893,5.785,7.294,5.785c0.568,0,1.146-0.065,1.723-0.201c7.249-1.704,14.747-2.568,22.285-2.568
		c4.142,0,7.5-3.358,7.5-7.5S147.607,31.929,143.464,31.929z"/>
	<path d="M222.308,64.585c-10.383-10.382-22.428-18.481-35.8-24.074c-3.821-1.598-8.214,0.204-9.813,4.026
		c-1.598,3.821,0.204,8.214,4.026,9.813c11.562,4.835,21.986,11.848,30.982,20.842l38.45,38.45c1.464,1.464,3.384,2.197,5.303,2.197
		s3.839-0.732,5.303-2.197c2.929-2.929,2.929-7.678,0-10.606L222.308,64.585z"/>
</g>
</svg>